# Exported from Wings 3D 1.5.3
mtllib eyelid take one.mtl
o Torus1
#128 vertices, 128 faces
v 3.00250000 4.9367550e-18 -1.0325786e-17
v 2.82661762 -7.2522573e-3 -0.17655958
v 2.82955600 -1.0897830e-2 -0.22522304
v 2.32935644 -7.7059295e-3 -0.15925674
v 2.12216700 1.2924121e-17 -3.7653772e-17
v 2.32935644 7.7059295e-3 0.15925674
v 2.82955600 1.0897830e-2 0.22522304
v 2.82661762 7.2522573e-3 0.17655958
v 3.26771109 -0.42033747 2.1378344e-2
v 3.07629301 -0.40342060 -0.13913071
v 2.61416887 -0.34716781 -0.20812036
v 2.15204474 -0.28453121 -0.14517742
v 1.96062666 3.7975180e-3 1.2827007e-2
v 2.15204474 -0.26911935 0.17333606
v 2.61416887 -0.32537215 0.24232571
v 3.07629301 -0.38800874 0.17938277
v 2.50099779 -0.77668237 3.9502029e-2
v 2.35449274 -0.73889130 -0.12206868
v 2.00079824 -0.63224373 -0.19362142
v 1.64710374 -0.51921235 -0.13324155
v 1.50059868 -0.21000942 2.3701218e-2
v 1.64710374 -0.50380049 0.18527193
v 2.00079824 -0.61044807 0.25682466
v 2.35449274 -0.72347944 0.19644479
v 1.35353025 -1.01478442 5.1611889e-2
v 1.27424229 -0.96304566 -0.11066820
v 1.08282420 -0.82272537 -0.18393353
v 0.89140612 -0.67602128 -0.12526625
v 0.81211815 -0.35287065 3.0967133e-2
v 0.89140612 -0.66060942 0.19324723
v 1.08282420 -0.80092971 0.26651255
v 1.27424229 -0.94763380 0.20784527
v 3.7708545e-16 -1.09839474 5.5864306e-2
v 3.6439876e-16 -1.04175820 -0.10666489
v 3.3377037e-16 -0.88961362 -0.18053159
v 3.0314198e-16 -0.73108525 -0.12246570
v 2.9045529e-16 -0.40303685 3.3518583e-2
v 3.0314198e-16 -0.71567339 0.19604778
v 3.3377037e-16 -0.86781796 0.26991448
v 3.6439876e-16 -1.02634634 0.21184859
v -1.35353025 -1.01478442 5.1611889e-2
v -1.27424229 -0.96304566 -0.11066820
v -1.08282420 -0.82272537 -0.18393353
v -0.89140612 -0.67602128 -0.12526625
v -0.81211815 -0.35287065 3.0967133e-2
v -0.89140612 -0.66060942 0.19324723
v -1.08282420 -0.80092971 0.26651255
v -1.27424229 -0.94763380 0.20784527
v -2.50099779 -0.77668237 3.9502029e-2
v -2.35449274 -0.73889130 -0.12206868
v -2.00079824 -0.63224373 -0.19362142
v -1.64710374 -0.51921235 -0.13324155
v -1.50059868 -0.21000942 2.3701218e-2
v -1.64710374 -0.50380049 0.18527193
v -2.00079824 -0.61044807 0.25682466
v -2.35449274 -0.72347944 0.19644479
v -3.26771109 -0.42033747 2.1378344e-2
v -3.07629301 -0.40342060 -0.13913071
v -2.61416887 -0.34716781 -0.20812036
v -2.15204474 -0.28453121 -0.14517742
v -1.96062666 3.7975180e-3 1.2827007e-2
v -2.15204474 -0.26911935 0.17333606
v -2.61416887 -0.32537215 0.24232571
v -3.07629301 -0.38800874 0.17938277
v -3.00250000 -1.2165851e-16 -2.7410810e-18
v -2.82661762 -7.2522573e-3 -0.17655958
v -2.82955600 -1.0897830e-2 -0.22522304
v -2.32935644 -7.7059295e-3 -0.15925674
v -2.12216700 -6.7784615e-17 -3.3548930e-17
v -2.32935644 7.7059295e-3 0.15925674
v -2.82955600 1.0897830e-2 0.22522304
v -2.82661762 7.2522573e-3 0.17655958
v -3.26771109 0.42033747 -2.1378344e-2
v -3.07629301 0.38800874 -0.17938277
v -2.61416887 0.32537215 -0.24232571
v -2.15204474 0.26911935 -0.17333606
v -1.96062666 5.0913709e-3 -1.2827007e-2
v -2.15204474 0.28453121 0.14517742
v -2.61416887 0.34716781 0.20812036
v -3.07629301 0.40342060 0.13913071
v -2.50099779 0.77668237 -3.9502029e-2
v -2.35449274 0.72347944 -0.19644479
v -2.00079824 0.61044807 -0.25682466
v -1.64710374 0.50380049 -0.18527193
v -1.50059868 0.21889831 -2.3701218e-2
v -1.64710374 0.51921235 0.13324155
v -2.00079824 0.63224373 0.19362142
v -2.35449274 0.73889130 0.12206868
v -1.35353025 1.01478442 -5.1611889e-2
v -1.27424229 0.94763380 -0.20784527
v -1.08282420 0.80092971 -0.26651255
v -0.89140612 0.66060942 -0.19324723
v -0.81211815 0.36175954 -3.0967133e-2
v -0.89140612 0.67602128 0.12526625
v -1.08282420 0.82272537 0.18393353
v -1.27424229 0.96304566 0.11066820
v -4.8921622e-16 1.09839474 -5.5864306e-2
v -4.5115614e-16 1.02634634 -0.21184859
v -3.5927097e-16 0.86781796 -0.26991448
v -2.6738580e-16 0.71567339 -0.19604778
v -2.2932572e-16 0.41192573 -3.3518583e-2
v -2.6738580e-16 0.73108525 0.12246570
v -3.5927097e-16 0.88961362 0.18053159
v -4.5115614e-16 1.04175820 0.10666489
v 1.35353025 1.01478442 -5.1611889e-2
v 1.27424229 0.94763380 -0.20784527
v 1.08282420 0.80092971 -0.26651255
v 0.89140612 0.66060942 -0.19324723
v 0.81211815 0.36175954 -3.0967133e-2
v 0.89140612 0.67602128 0.12526625
v 1.08282420 0.82272537 0.18393353
v 1.27424229 0.96304566 0.11066820
v 2.50099779 0.77668237 -3.9502029e-2
v 2.35449274 0.72347944 -0.19644479
v 2.00079824 0.61044807 -0.25682466
v 1.64710374 0.50380049 -0.18527193
v 1.50059868 0.21889831 -2.3701218e-2
v 1.64710374 0.51921235 0.13324155
v 2.00079824 0.63224373 0.19362142
v 2.35449274 0.73889130 0.12206868
v 3.26771109 0.42033747 -2.1378344e-2
v 3.07629301 0.38800874 -0.17938277
v 2.61416887 0.32537215 -0.24232571
v 2.15204474 0.26911935 -0.17333606
v 1.96062666 5.0913709e-3 -1.2827007e-2
v 2.15204474 0.28453121 0.14517742
v 2.61416887 0.34716781 0.20812036
v 3.07629301 0.40342060 0.13913071
vn 1.00000000 1.3517610e-15 7.4128828e-16
vn 0.47240336 -4.4689722e-2 -0.88024877
vn 5.6453108e-2 -5.0693242e-2 -0.99711747
vn -0.26045683 -5.1850749e-2 -0.96409218
vn -0.99999368 3.5545213e-3 -4.5750351e-5
vn -0.25983620 5.3212342e-2 0.96418546
vn 5.6453108e-2 5.0693242e-2 0.99711747
vn 0.47240336 4.4689722e-2 0.88024877
vn 0.93547499 -0.35294360 1.7814476e-2
vn 0.38573218 -0.22332735 -0.89517349
vn 2.8407819e-2 -3.2253253e-2 -0.99907593
vn -0.20671188 0.24818640 -0.94640039
vn -0.54291084 0.83953185 -2.0834794e-2
vn -0.18638824 0.33228843 0.92457765
vn 2.8469232e-2 6.9124422e-2 0.99720174
vn 0.38535064 -0.13198346 0.91328268
vn 0.31057319 -0.94941216 4.6484757e-2
vn 0.19361592 -0.63785427 -0.74542257
vn -6.0307241e-5 -5.0588180e-2 -0.99871960
vn -0.11746136 0.31598728 -0.94146421
vn -0.31322472 0.94955022 -1.5641601e-2
vn -0.10799093 0.38183403 0.91790017
vn 6.0307241e-5 5.0588180e-2 0.99871960
vn 0.19409251 -0.56046495 0.80511312
vn 0.13209709 -0.99005957 4.8295002e-2
vn 9.0904684e-2 -0.72338173 -0.68443788
vn -4.1077155e-5 -5.0466069e-2 -0.99872578
vn -5.4945855e-2 0.37015114 -0.92734518
vn -0.13238452 0.99104602 -1.7381634e-2
vn -5.0925589e-2 0.43298382 0.89996200
vn 4.1077155e-5 5.0466069e-2 0.99872578
vn 9.1130433e-2 -0.65198883 0.75273223
vn -1.8740593e-18 -0.99881467 4.8675008e-2
vn -9.3936346e-19 -0.74694537 -0.66488541
vn 9.4259000e-19 -5.0418148e-2 -0.99872820
vn -1.7372187e-18 0.38709031 -0.92204181
vn -3.8961525e-18 0.99984369 -1.7680225e-2
vn -2.6031393e-18 0.44904689 0.89350819
vn 0.0000000e+0 5.0418148e-2 0.99872820
vn 1.8800905e-18 -0.67747099 0.73554949
vn -0.13209709 -0.99005957 4.8295002e-2
vn -9.0904684e-2 -0.72338173 -0.68443788
vn 4.1077155e-5 -5.0466069e-2 -0.99872578
vn 5.4945855e-2 0.37015114 -0.92734518
vn 0.13238452 0.99104602 -1.7381634e-2
vn 5.0925589e-2 0.43298382 0.89996200
vn -4.1077155e-5 5.0466069e-2 0.99872578
vn -9.1130433e-2 -0.65198883 0.75273223
vn -0.31057319 -0.94941216 4.6484757e-2
vn -0.19361592 -0.63785427 -0.74542257
vn 6.0307241e-5 -5.0588180e-2 -0.99871960
vn 0.11746136 0.31598728 -0.94146421
vn 0.31322472 0.94955022 -1.5641601e-2
vn 0.10799093 0.38183403 0.91790017
vn -6.0307241e-5 5.0588180e-2 0.99871960
vn -0.19409251 -0.56046495 0.80511312
vn -0.93547499 -0.35294360 1.7814476e-2
vn -0.38573218 -0.22332735 -0.89517349
vn -2.8407819e-2 -3.2253253e-2 -0.99907593
vn 0.20671188 0.24818640 -0.94640039
vn 0.54291084 0.83953185 -2.0834794e-2
vn 0.18638824 0.33228843 0.92457765
vn -2.8469232e-2 6.9124422e-2 0.99720174
vn -0.38535064 -0.13198346 0.91328268
vn -1.00000000 -3.9244673e-16 6.1047270e-16
vn -0.47240336 -4.4689722e-2 -0.88024877
vn -5.6453108e-2 -5.0693242e-2 -0.99711747
vn 0.26045683 -5.1850749e-2 -0.96409218
vn 0.99999368 3.5545213e-3 -4.5750351e-5
vn 0.25983620 5.3212342e-2 0.96418546
vn -5.6453108e-2 5.0693242e-2 0.99711747
vn -0.47240336 4.4689722e-2 0.88024877
vn -0.93547499 0.35294360 -1.7814476e-2
vn -0.38535064 0.13198346 -0.91328268
vn -2.8469232e-2 -6.9124422e-2 -0.99720174
vn 0.19016429 -0.33381678 -0.92325722
vn 0.54968056 -0.83511212 2.0953202e-2
vn 0.20975913 -0.24964777 0.94534496
vn -2.8407819e-2 3.2253253e-2 0.99907593
vn -0.38573218 0.22332735 0.89517349
vn -0.31057319 0.94941216 -4.6484757e-2
vn -0.19409251 0.56046495 -0.80511312
vn -6.0307241e-5 -5.0588180e-2 -0.99871960
vn 0.10953816 -0.38650207 -0.91576064
vn 0.31312077 -0.94957434 1.6247003e-2
vn 0.11881456 -0.32026282 0.93984830
vn 6.0307241e-5 5.0588180e-2 0.99871960
vn -0.19361592 0.63785427 0.74542257
vn -0.13209709 0.99005957 -4.8295002e-2
vn -9.1130433e-2 0.65198883 -0.75273223
vn -4.1077155e-5 -5.0466069e-2 -0.99872578
vn 5.1629655e-2 -0.43816934 -0.89740850
vn 0.13236414 -0.99103833 1.7965771e-2
vn 5.5569567e-2 -0.37496681 0.92537123
vn 4.1077155e-5 5.0466069e-2 0.99872578
vn -9.0904684e-2 0.72338173 0.68443788
vn -5.9969898e-17 0.99881467 -4.8675008e-2
vn -3.3841629e-17 0.67747099 -0.73554949
vn -2.8277700e-18 -5.0418148e-2 -0.99872820
vn 1.1281489e-17 -0.45435589 -0.89082026
vn 4.9526742e-17 -0.99983325 1.8261350e-2
vn 1.5639228e-17 -0.39203775 0.91994913
vn 9.4259000e-19 5.0418148e-2 0.99872820
vn -3.5695812e-17 0.74694537 0.66488541
vn 0.13209709 0.99005957 -4.8295002e-2
vn 9.1130433e-2 0.65198883 -0.75273223
vn 4.1077155e-5 -5.0466069e-2 -0.99872578
vn -5.1629655e-2 -0.43816934 -0.89740850
vn -0.13236414 -0.99103833 1.7965771e-2
vn -5.5569567e-2 -0.37496681 0.92537123
vn -4.1077155e-5 5.0466069e-2 0.99872578
vn 9.0904684e-2 0.72338173 0.68443788
vn 0.31057319 0.94941216 -4.6484757e-2
vn 0.19409251 0.56046495 -0.80511312
vn 6.0307241e-5 -5.0588180e-2 -0.99871960
vn -0.10953816 -0.38650207 -0.91576064
vn -0.31312077 -0.94957434 1.6247003e-2
vn -0.11881456 -0.32026282 0.93984830
vn -6.0307241e-5 5.0588180e-2 0.99871960
vn 0.19361592 0.63785427 0.74542257
vn 0.93547499 0.35294360 -1.7814476e-2
vn 0.38535064 0.13198346 -0.91328268
vn 2.8469232e-2 -6.9124422e-2 -0.99720174
vn -0.19016429 -0.33381678 -0.92325722
vn -0.54968056 -0.83511212 2.0953202e-2
vn -0.20975913 -0.24964777 0.94534496
vn 2.8407819e-2 3.2253253e-2 0.99907593
vn 0.38573218 0.22332735 0.89517349
g Torus1_default
usemtl default
s 1
f 1//1 9//9 10//10 2//2
f 1//1 121//121 128//128 8//8
f 2//2 10//10 11//11 3//3
f 2//2 122//122 121//121 1//1
f 3//3 11//11 12//12 4//4
f 3//3 123//123 122//122 2//2
f 4//4 12//12 13//13 5//5
f 4//4 124//124 123//123 3//3
f 5//5 13//13 14//14 6//6
f 5//5 125//125 124//124 4//4
f 6//6 14//14 15//15 7//7
f 6//6 126//126 125//125 5//5
f 7//7 15//15 16//16 8//8
f 7//7 127//127 126//126 6//6
f 8//8 16//16 9//9 1//1
f 8//8 128//128 127//127 7//7
f 9//9 17//17 18//18 10//10
f 10//10 18//18 19//19 11//11
f 11//11 19//19 20//20 12//12
f 12//12 20//20 21//21 13//13
f 13//13 21//21 22//22 14//14
f 14//14 22//22 23//23 15//15
f 15//15 23//23 24//24 16//16
f 16//16 24//24 17//17 9//9
f 17//17 25//25 26//26 18//18
f 18//18 26//26 27//27 19//19
f 19//19 27//27 28//28 20//20
f 20//20 28//28 29//29 21//21
f 21//21 29//29 30//30 22//22
f 22//22 30//30 31//31 23//23
f 23//23 31//31 32//32 24//24
f 24//24 32//32 25//25 17//17
f 25//25 33//33 34//34 26//26
f 26//26 34//34 35//35 27//27
f 27//27 35//35 36//36 28//28
f 28//28 36//36 37//37 29//29
f 29//29 37//37 38//38 30//30
f 30//30 38//38 39//39 31//31
f 31//31 39//39 40//40 32//32
f 32//32 40//40 33//33 25//25
f 33//33 41//41 42//42 34//34
f 34//34 42//42 43//43 35//35
f 35//35 43//43 44//44 36//36
f 36//36 44//44 45//45 37//37
f 37//37 45//45 46//46 38//38
f 38//38 46//46 47//47 39//39
f 39//39 47//47 48//48 40//40
f 40//40 48//48 41//41 33//33
f 41//41 49//49 50//50 42//42
f 42//42 50//50 51//51 43//43
f 43//43 51//51 52//52 44//44
f 44//44 52//52 53//53 45//45
f 45//45 53//53 54//54 46//46
f 46//46 54//54 55//55 47//47
f 47//47 55//55 56//56 48//48
f 48//48 56//56 49//49 41//41
f 49//49 57//57 58//58 50//50
f 50//50 58//58 59//59 51//51
f 51//51 59//59 60//60 52//52
f 52//52 60//60 61//61 53//53
f 53//53 61//61 62//62 54//54
f 54//54 62//62 63//63 55//55
f 55//55 63//63 64//64 56//56
f 56//56 64//64 57//57 49//49
f 57//57 65//65 66//66 58//58
f 58//58 66//66 67//67 59//59
f 59//59 67//67 68//68 60//60
f 60//60 68//68 69//69 61//61
f 61//61 69//69 70//70 62//62
f 62//62 70//70 71//71 63//63
f 63//63 71//71 72//72 64//64
f 64//64 72//72 65//65 57//57
f 65//65 73//73 74//74 66//66
f 66//66 74//74 75//75 67//67
f 67//67 75//75 76//76 68//68
f 68//68 76//76 77//77 69//69
f 69//69 77//77 78//78 70//70
f 70//70 78//78 79//79 71//71
f 71//71 79//79 80//80 72//72
f 72//72 80//80 73//73 65//65
f 73//73 81//81 82//82 74//74
f 74//74 82//82 83//83 75//75
f 75//75 83//83 84//84 76//76
f 76//76 84//84 85//85 77//77
f 77//77 85//85 86//86 78//78
f 78//78 86//86 87//87 79//79
f 79//79 87//87 88//88 80//80
f 80//80 88//88 81//81 73//73
f 81//81 89//89 90//90 82//82
f 82//82 90//90 91//91 83//83
f 83//83 91//91 92//92 84//84
f 84//84 92//92 93//93 85//85
f 85//85 93//93 94//94 86//86
f 86//86 94//94 95//95 87//87
f 87//87 95//95 96//96 88//88
f 88//88 96//96 89//89 81//81
f 89//89 97//97 98//98 90//90
f 90//90 98//98 99//99 91//91
f 91//91 99//99 100//100 92//92
f 92//92 100//100 101//101 93//93
f 93//93 101//101 102//102 94//94
f 94//94 102//102 103//103 95//95
f 95//95 103//103 104//104 96//96
f 96//96 104//104 97//97 89//89
f 97//97 105//105 106//106 98//98
f 98//98 106//106 107//107 99//99
f 99//99 107//107 108//108 100//100
f 100//100 108//108 109//109 101//101
f 101//101 109//109 110//110 102//102
f 102//102 110//110 111//111 103//103
f 103//103 111//111 112//112 104//104
f 104//104 112//112 105//105 97//97
f 105//105 113//113 114//114 106//106
f 106//106 114//114 115//115 107//107
f 107//107 115//115 116//116 108//108
f 108//108 116//116 117//117 109//109
f 109//109 117//117 118//118 110//110
f 110//110 118//118 119//119 111//111
f 111//111 119//119 120//120 112//112
f 112//112 120//120 113//113 105//105
f 113//113 121//121 122//122 114//114
f 114//114 122//122 123//123 115//115
f 115//115 123//123 124//124 116//116
f 116//116 124//124 125//125 117//117
f 117//117 125//125 126//126 118//118
f 118//118 126//126 127//127 119//119
f 119//119 127//127 128//128 120//120
f 120//120 128//128 121//121 113//113
